{"title":"Closed.For.The.Season.2010.DVDSCR.XviD-SiC","uid":6572898,"size":1569341322,"categoryP":"video","categoryS":"movies","magnet":"?xt=urn:btih:9c2096a49536adb04afb8949f4c09986ed6fb36c&amp;dn=Closed.For.The.Season.2010.DVDSCR.XviD-SiC&amp;tr=udp%3A%2F%2Ftracker.openbittorrent.com%3A80&amp;tr=udp%3A%2F%2Fopen.demonii.com%3A1337&amp;tr=udp%3A%2F%2Ftracker.coppersurfer.tk%3A6969&amp;tr=udp%3A%2F%2Fexodus.desync.com%3A6969","seeders":1,"leechers":0,"uploader":"sceneline","files":5,"time":1312050634,"description":"- &lt;a href=&quot;\nhttp://www.Speed.Cd&quot; rel=&quot;nofollow&quot; target=&quot;_NEW&quot;&gt;\nhttp://www.Speed.Cd&lt;/a&gt; \n       &lt;a href=&quot;\nhttp://www.Speed.Cd&quot; rel=&quot;nofollow&quot; target=&quot;_NEW&quot;&gt;\nhttp://www.Speed.Cd&lt;/a&gt;       the fast  and The Hottest Private Tracker on the net\n\n(((--Registration will be open on june every weekend--)))\n\nPlease Seed back to make the speed Faster!!!\n\n------------------nfo--------------------------\n-\n\n\n\n\n\n\n\n\n\n\n\n\n\n\n\n\n\n\n\n\n\n\n\n\n\n\n\n\n\n\n\n\n\n\n\n\n\n\n\n\n          \n          \n              \n              \n                    \n                    \n                    \n                    \n\nClosed.For.The.Season.2010.DVDSCR.XviD-SiC\n\nPoster:\n[img]http://leetleech.org/images/34084675862481735733.jpg[/img]\n\nIMDB Link:\nhttp://www.imdb.com/title/tt1298643/\n\nNotes:\nTHere is an occasional &quot;screening purposes only&quot; nag that pops up.\nNothing too distracting. Enjoy!\n\nDescription:\nTrapped in a forgotten amusement park, a young woman finds herself terrorized by\nthe living memories of the park. She must break free from the park's grasp before\nshe becomes its next victim.\n\nMediainfo:\nGeneral\nComplete name                    : Closed.For.The.Season.2010.DVDSCR.XviD-SiC.avi\nFormat                           : AVI\nFormat/Info                      : Audio Video Interleave\nFile size                        : 1.44 GiB\nDuration                         : 1h 53mn\nOverall bit rate                 : 1 814 Kbps\nWriting application              : VirtualDubMod 1.5.4.1 (build 2178/release)\nWriting library                  : VirtualDub build 32842/release\n\nVideo\nID                               : 0\nFormat                           : MPEG-4 Visual\nFormat profile                   : Advanced Simple@L5\nFormat settings, BVOP            : 1\nFormat settings, QPel            : No\nFormat settings, GMC             : No warppoints\nFormat settings, Matrix          : Custom\nCodec ID                         : XVID\nCodec ID/Hint                    : XviD\nDuration                         : 1h 53mn\nBit rate                         : 1 613 Kbps\nWidth                            : 720 pixels\nHeight                           : 320 pixels\nDisplay aspect ratio             : 2.25:1\nFrame rate                       : 23.976 fps\nColor space                      : YUV\nChroma subsampling               : 4:2:0\nBit depth                        : 8 bits\nScan type                        : Progressive\nCompression mode                 : Lossy\nBits/(Pixel*Frame)               : 0.292\nStream size                      : 1.28 GiB (89%)\nWriting library                  : XviD 64\n\nAudio\nID                               : 1\nFormat                           : AC-3\nFormat/Info                      : Audio Coding 3\nMode extension                   : CM (complete main)\nCodec ID                         : 2000\nDuration                         : 1h 53mn\nBit rate mode                    : Constant\nBit rate                         : 192 Kbps\nChannel(s)                       : 2 channels\nChannel positions                : Front: L R\nSampling rate                    : 48.0 KHz\nBit depth                        : 16 bits\nCompression mode                 : Lossy\nDelay relative to video          : 17ms\nStream size                      : 156 MiB (11%)\nAlignment                        : Split accross interleaves\nInterleave, duration             : 42 ms (1.00 video frame)\nInterleave, preload duration     : 500 ms\n\n\nScreenshots:\n[img]http://leetleech.org/images/83166017601218870384.png[/img]\n[img]http://leetleech.org/images/55835502741464290836.png[/img]\n[img]http://leetleech.org/images/22379587642589633844.png[/img]\n[img]http://leetleech.org/images/23257202280433504306.png[/img]\n[img]http://leetleech.org/images/31740739422442135024.png[/img]\n\n\nEncoder: thefuzz\n\nRespects to CaptainHomey, Cyanide, CM8, Rx, THC, ELEKTRI4KA, Killerhz,\nXtremE, PA, YeFsTe and everyone in the struggle...","torrent":{"xt":"urn:btih:9c2096a49536adb04afb8949f4c09986ed6fb36c","amp;dn":"Closed.For.The.Season.2010.DVDSCR.XviD-SiC","amp;tr":["udp%3A%2F%2Ftracker.openbittorrent.com%3A80","udp%3A%2F%2Fopen.demonii.com%3A1337","udp%3A%2F%2Ftracker.coppersurfer.tk%3A6969","udp%3A%2F%2Fexodus.desync.com%3A6969"],"infoHash":"9c2096a49536adb04afb8949f4c09986ed6fb36c","infoHashBuffer":{"type":"Buffer","data":[156,32,150,164,149,54,173,176,74,251,137,73,244,192,153,134,237,111,179,108]},"announce":[],"urlList":[]}}